<svg width="21" height="19" viewBox="0 0 21 19" fill="none" xmlns="http://www.w3.org/2000/svg">
<path d="M0.802734 6.18555C0.802734 5.31966 0.939453 4.52865 1.21289 3.8125C1.49284 3.08984 1.88346 2.46484 2.38477 1.9375C2.88607 1.41016 3.47201 1.00326 4.14258 0.716797C4.81966 0.430339 5.55208 0.287109 6.33984 0.287109C7.24479 0.287109 8.05534 0.485677 8.77148 0.882812C9.48763 1.27995 10.0638 1.80729 10.5 2.46484C10.9427 1.80729 11.5189 1.27995 12.2285 0.882812C12.9447 0.485677 13.7552 0.287109 14.6602 0.287109C15.4544 0.287109 16.1868 0.430339 16.8574 0.716797C17.5345 1.00326 18.1204 1.41016 18.6152 1.9375C19.1165 2.46484 19.5039 3.08984 19.7773 3.8125C20.0573 4.52865 20.1973 5.31966 20.1973 6.18555C20.1973 7.57227 19.8294 8.94596 19.0938 10.3066C18.3646 11.6608 17.3262 12.9824 15.9785 14.2715C14.6374 15.554 13.0488 16.7812 11.2129 17.9531C11.1087 18.0182 10.9883 18.0768 10.8516 18.1289C10.7214 18.1875 10.6042 18.2168 10.5 18.2168C10.4023 18.2168 10.2852 18.1875 10.1484 18.1289C10.0182 18.0768 9.90104 18.0182 9.79688 17.9531C7.96094 16.7812 6.36914 15.554 5.02148 14.2715C3.67383 12.9824 2.63216 11.6608 1.89648 10.3066C1.16732 8.94596 0.802734 7.57227 0.802734 6.18555ZM2.375 6.18555C2.375 7.09049 2.5931 8.00846 3.0293 8.93945C3.46549 9.86393 4.05794 10.7721 4.80664 11.6641C5.55534 12.556 6.40169 13.4089 7.3457 14.2227C8.29622 15.0299 9.28255 15.7721 10.3047 16.4492C10.4089 16.5273 10.474 16.5664 10.5 16.5664C10.526 16.5664 10.5944 16.5273 10.7051 16.4492C11.7272 15.7721 12.7103 15.0299 13.6543 14.2227C14.6048 13.4089 15.4512 12.556 16.1934 11.6641C16.9421 10.7721 17.5345 9.86393 17.9707 8.93945C18.4069 8.00846 18.625 7.09049 18.625 6.18555C18.625 5.31966 18.4525 4.56445 18.1074 3.91992C17.7689 3.26888 17.3001 2.76432 16.7012 2.40625C16.1087 2.04167 15.4349 1.85938 14.6797 1.85938C14.0677 1.85938 13.5404 1.97005 13.0977 2.19141C12.6615 2.40625 12.2839 2.67969 11.9648 3.01172C11.6523 3.33724 11.3854 3.65951 11.1641 3.97852C11.0208 4.16732 10.9036 4.29753 10.8125 4.36914C10.7214 4.44076 10.6172 4.47656 10.5 4.47656C10.3828 4.47656 10.2754 4.44401 10.1777 4.37891C10.0866 4.30729 9.97266 4.17383 9.83594 3.97852C9.6276 3.65299 9.36719 3.32747 9.05469 3.00195C8.74219 2.67643 8.36133 2.40625 7.91211 2.19141C7.46289 1.97005 6.93229 1.85938 6.32031 1.85938C5.5651 1.85938 4.88802 2.04167 4.28906 2.40625C3.69661 2.76432 3.22786 3.26888 2.88281 3.91992C2.54427 4.56445 2.375 5.31966 2.375 6.18555Z" fill="#BCC2C0"/>
</svg>
