<svg width="28" height="19" viewBox="0 0 28 19" fill="none" xmlns="http://www.w3.org/2000/svg">
<path d="M12.9258 18.9922C11.3307 18.9922 10.5332 18.4714 10.5332 17.4297C10.5332 16.7917 10.7285 16.1113 11.1191 15.3887C11.5098 14.666 12.0729 13.9857 12.8086 13.3477C13.5508 12.7031 14.446 12.179 15.4941 11.7754C16.5488 11.3717 17.737 11.1699 19.0586 11.1699C20.3867 11.1699 21.5749 11.3717 22.623 11.7754C23.6777 12.179 24.5729 12.7031 25.3086 13.3477C26.0508 13.9857 26.6172 14.666 27.0078 15.3887C27.3984 16.1113 27.5938 16.7917 27.5938 17.4297C27.5938 18.4714 26.793 18.9922 25.1914 18.9922H12.9258ZM12.457 17.5176H25.6602C25.7904 17.5176 25.8815 17.498 25.9336 17.459C25.9922 17.4199 26.0215 17.3483 26.0215 17.2441C26.0215 16.8405 25.8685 16.3783 25.5625 15.8574C25.263 15.3366 24.8171 14.832 24.2246 14.3438C23.6322 13.8555 22.903 13.4518 22.0371 13.1328C21.1712 12.8073 20.1784 12.6445 19.0586 12.6445C17.9388 12.6445 16.946 12.8073 16.0801 13.1328C15.2207 13.4518 14.4948 13.8555 13.9023 14.3438C13.3099 14.832 12.8607 15.3366 12.5547 15.8574C12.2552 16.3783 12.1055 16.8405 12.1055 17.2441C12.1055 17.3483 12.1315 17.4199 12.1836 17.459C12.2422 17.498 12.3333 17.5176 12.457 17.5176ZM19.0684 9.94922C18.2936 9.94922 17.5872 9.74414 16.9492 9.33398C16.3112 8.92383 15.8001 8.3737 15.416 7.68359C15.0384 6.98698 14.8496 6.22201 14.8496 5.38867C14.8496 4.56185 15.0384 3.8099 15.416 3.13281C15.8001 2.45573 16.3112 1.91536 16.9492 1.51172C17.5872 1.10807 18.2936 0.90625 19.0684 0.90625C19.8496 0.90625 20.5592 1.10482 21.1973 1.50195C21.8353 1.89909 22.3431 2.4362 22.7207 3.11328C23.0983 3.78385 23.2871 4.53581 23.2871 5.36914C23.2871 6.20898 23.0951 6.97721 22.7109 7.67383C22.3333 8.36393 21.8255 8.91732 21.1875 9.33398C20.5495 9.74414 19.8431 9.94922 19.0684 9.94922ZM19.0684 8.47461C19.5501 8.47461 19.9896 8.33789 20.3867 8.06445C20.7904 7.78451 21.1126 7.41016 21.3535 6.94141C21.5944 6.46615 21.7148 5.94206 21.7148 5.36914C21.7148 4.80273 21.5944 4.29492 21.3535 3.8457C21.1191 3.38997 20.8001 3.0319 20.3965 2.77148C19.9993 2.51107 19.5566 2.38086 19.0684 2.38086C18.5866 2.38086 18.1439 2.51432 17.7402 2.78125C17.3431 3.04167 17.0241 3.39974 16.7832 3.85547C16.5423 4.3112 16.4219 4.82227 16.4219 5.38867C16.4219 5.96159 16.5423 6.48242 16.7832 6.95117C17.0306 7.41992 17.3529 7.79102 17.75 8.06445C18.1536 8.33789 18.5931 8.47461 19.0684 8.47461ZM2.37891 18.9922C1.72135 18.9922 1.22656 18.8555 0.894531 18.582C0.5625 18.3151 0.396484 17.9082 0.396484 17.3613C0.396484 16.554 0.588542 15.7793 0.972656 15.0371C1.35677 14.2884 1.88737 13.6243 2.56445 13.0449C3.24805 12.459 4.03581 11.9967 4.92773 11.6582C5.82617 11.3197 6.78646 11.1504 7.80859 11.1504C8.34896 11.1504 8.87305 11.1992 9.38086 11.2969C9.88867 11.388 10.377 11.528 10.8457 11.7168C11.321 11.8991 11.7702 12.127 12.1934 12.4004C11.972 12.5566 11.7702 12.7227 11.5879 12.8984C11.4056 13.0677 11.2396 13.25 11.0898 13.4453C10.7708 13.2565 10.4355 13.1003 10.084 12.9766C9.73893 12.8529 9.37435 12.7585 8.99023 12.6934C8.61263 12.6283 8.21875 12.5957 7.80859 12.5957C7.00781 12.5957 6.24935 12.7259 5.5332 12.9863C4.81706 13.2402 4.18229 13.5885 3.62891 14.0312C3.07552 14.4674 2.63932 14.9655 2.32031 15.5254C2.00781 16.0853 1.85156 16.668 1.85156 17.2734C1.85156 17.3711 1.87435 17.4395 1.91992 17.4785C1.96549 17.5241 2.04036 17.5469 2.14453 17.5469H9.29297C9.26042 17.8464 9.31901 18.1296 9.46875 18.3965C9.61849 18.6634 9.81055 18.862 10.0449 18.9922H2.37891ZM7.81836 10.0371C7.14779 10.0371 6.53581 9.85807 5.98242 9.5C5.42904 9.13542 4.98633 8.65039 4.6543 8.04492C4.32227 7.43945 4.15625 6.76888 4.15625 6.0332C4.15625 5.31055 4.32227 4.65299 4.6543 4.06055C4.98633 3.46159 5.42904 2.98633 5.98242 2.63477C6.53581 2.27669 7.14779 2.09766 7.81836 2.09766C8.49544 2.09766 9.11068 2.27344 9.66406 2.625C10.2174 2.97656 10.6569 3.44857 10.9824 4.04102C11.3145 4.63346 11.4805 5.29102 11.4805 6.01367C11.4805 6.74935 11.3145 7.42318 10.9824 8.03516C10.6504 8.64714 10.2077 9.13542 9.6543 9.5C9.10091 9.85807 8.48893 10.0371 7.81836 10.0371ZM7.81836 8.58203C8.21549 8.58203 8.58333 8.4681 8.92188 8.24023C9.26042 8.00586 9.5306 7.69661 9.73242 7.3125C9.93424 6.92188 10.0352 6.48893 10.0352 6.01367C10.0352 5.55143 9.93424 5.13477 9.73242 4.76367C9.53711 4.39258 9.27018 4.09961 8.93164 3.88477C8.59961 3.66341 8.22852 3.55273 7.81836 3.55273C7.41471 3.55273 7.04362 3.66341 6.70508 3.88477C6.37305 4.10612 6.10612 4.4056 5.9043 4.7832C5.70898 5.1543 5.61133 5.57096 5.61133 6.0332C5.61133 6.50195 5.71224 6.93164 5.91406 7.32227C6.11589 7.70638 6.38281 8.01237 6.71484 8.24023C7.05339 8.4681 7.42122 8.58203 7.81836 8.58203Z" fill="#BCC2C0"/>
</svg>
