<svg width="20" height="20" viewBox="0 0 20 20" fill="none" xmlns="http://www.w3.org/2000/svg">
<path fill-rule="evenodd" clip-rule="evenodd" d="M1.66675 3.33317C1.66675 2.4127 2.41294 1.6665 3.33341 1.6665H7.50008C8.42056 1.6665 9.16675 2.4127 9.16675 3.33317V9.1665C9.16675 10.087 8.42056 10.8332 7.50008 10.8332H3.33341C2.41294 10.8332 1.66675 10.087 1.66675 9.1665V3.33317ZM7.50008 3.33317H3.33341V9.1665H7.50008V3.33317Z" fill="#BCC2C0"/>
<path fill-rule="evenodd" clip-rule="evenodd" d="M10.8333 3.33317C10.8333 2.4127 11.5794 1.6665 12.4999 1.6665H16.6666C17.5871 1.6665 18.3333 2.4127 18.3333 3.33317V5.83317C18.3333 6.75365 17.5871 7.49984 16.6666 7.49984H12.4999C11.5794 7.49984 10.8333 6.75365 10.8333 5.83317V3.33317ZM16.6666 3.33317H12.4999V5.83317H16.6666V3.33317Z" fill="#BCC2C0"/>
<path fill-rule="evenodd" clip-rule="evenodd" d="M10.8333 10.8332C10.8333 9.9127 11.5794 9.1665 12.4999 9.1665H16.6666C17.5871 9.1665 18.3333 9.9127 18.3333 10.8332V16.6665C18.3333 17.587 17.5871 18.3332 16.6666 18.3332H12.4999C11.5794 18.3332 10.8333 17.587 10.8333 16.6665V10.8332ZM16.6666 10.8332H12.4999V16.6665H16.6666V10.8332Z" fill="#BCC2C0"/>
<path fill-rule="evenodd" clip-rule="evenodd" d="M1.66675 14.1667C1.66675 13.2462 2.41294 12.5 3.33341 12.5H7.50008C8.42056 12.5 9.16675 13.2462 9.16675 14.1667V16.6667C9.16675 17.5871 8.42056 18.3333 7.50008 18.3333H3.33341C2.41294 18.3333 1.66675 17.5871 1.66675 16.6667V14.1667ZM7.50008 14.1667H3.33341V16.6667H7.50008V14.1667Z" fill="#BCC2C0"/>
</svg>
