<svg width="19" height="4" viewBox="0 0 19 4" fill="none" xmlns="http://www.w3.org/2000/svg">
<path d="M2.24414 3.79492C1.89909 3.79492 1.58659 3.71354 1.30664 3.55078C1.02669 3.38151 0.802083 3.1569 0.632812 2.87695C0.470052 2.59701 0.388672 2.28776 0.388672 1.94922C0.388672 1.60417 0.470052 1.29167 0.632812 1.01172C0.802083 0.731771 1.02669 0.510417 1.30664 0.347656C1.58659 0.178385 1.89909 0.09375 2.24414 0.09375C2.58268 0.09375 2.89193 0.178385 3.17188 0.347656C3.45182 0.510417 3.67318 0.731771 3.83594 1.01172C4.00521 1.29167 4.08984 1.60417 4.08984 1.94922C4.08984 2.28776 4.00521 2.59701 3.83594 2.87695C3.67318 3.1569 3.45182 3.38151 3.17188 3.55078C2.89193 3.71354 2.58268 3.79492 2.24414 3.79492ZM9.5 3.79492C9.15495 3.79492 8.84245 3.71354 8.5625 3.55078C8.28255 3.38151 8.05794 3.1569 7.88867 2.87695C7.72591 2.59701 7.64453 2.28776 7.64453 1.94922C7.64453 1.60417 7.72591 1.29167 7.88867 1.01172C8.05794 0.731771 8.28255 0.510417 8.5625 0.347656C8.84245 0.178385 9.15495 0.09375 9.5 0.09375C9.83854 0.09375 10.1478 0.178385 10.4277 0.347656C10.7077 0.510417 10.929 0.731771 11.0918 1.01172C11.2611 1.29167 11.3457 1.60417 11.3457 1.94922C11.3457 2.28776 11.2611 2.59701 11.0918 2.87695C10.929 3.1569 10.7077 3.38151 10.4277 3.55078C10.1478 3.71354 9.83854 3.79492 9.5 3.79492ZM16.7559 3.79492C16.4108 3.79492 16.0983 3.71354 15.8184 3.55078C15.5384 3.38151 15.3138 3.1569 15.1445 2.87695C14.9818 2.59701 14.9004 2.28776 14.9004 1.94922C14.9004 1.60417 14.9818 1.29167 15.1445 1.01172C15.3138 0.731771 15.5384 0.510417 15.8184 0.347656C16.0983 0.178385 16.4108 0.09375 16.7559 0.09375C17.0944 0.09375 17.4036 0.178385 17.6836 0.347656C17.9635 0.510417 18.1882 0.731771 18.3574 1.01172C18.5267 1.29167 18.6113 1.60417 18.6113 1.94922C18.6113 2.28776 18.5267 2.59701 18.3574 2.87695C18.1882 3.1569 17.9635 3.38151 17.6836 3.55078C17.4036 3.71354 17.0944 3.79492 16.7559 3.79492Z" fill="#BCC2C0"/>
</svg>
