<?xml version="1.0" encoding="UTF-8"?>
<svg id="Layer_1" xmlns="http://www.w3.org/2000/svg" version="1.1" viewBox="0 0 595.28 841.89">
  <!-- Generator: Adobe Illustrator 29.0.1, SVG Export Plug-In . SVG Version: 2.1.0 Build 192)  -->
  <defs>
    <style>
      .st0 {
        fill: #fd0;
      }

      .st1 {
        fill: #ed2228;
      }

      .st2 {
        fill: #00944f;
      }

      .st3 {
        fill: #009edb;
      }

      .st4 {
        fill: #804099;
      }
    </style>
  </defs>
  <g>
    <path class="st3" d="M356.82,631.99c-3.53,0-6.54,1.23-9.01,3.69-2.47,2.46-3.71,5.39-3.71,8.78v21.42c0,5.62-1.53,9.83-4.6,12.64-3.06,2.81-6.83,4.21-11.31,4.21s-8.28-1.4-11.4-4.21c-3.12-2.81-4.68-7.02-4.68-12.64v-21.42c0-3.39-1.24-6.32-3.71-8.78s-5.42-3.69-8.84-3.69-6.54,1.23-9.01,3.69c-2.47,2.46-3.71,5.39-3.71,8.78v21.42c0,5.62-1.56,9.83-4.68,12.64-3.12,2.81-6.92,4.21-11.4,4.21s-8.25-1.4-11.31-4.21c-3.07-2.81-4.59-7.02-4.59-12.64v-21.42c0-3.39-1.24-6.32-3.71-8.78-2.47-2.46-5.48-3.69-9.01-3.69s-6.36,1.23-8.84,3.69c-2.47,2.46-3.71,5.39-3.71,8.78v21.24c0,2.81-.68,5.3-2.03,7.46-1.36,2.17-3.21,3.95-5.57,5.35-2.36,1.4-5.1,2.46-8.22,3.16-3.12.7-6.45,1.05-9.98,1.05h-4.42c-3.77,0-6.83-1.08-9.19-3.25-2.36-2.16-4.77-5.65-7.25-10.45l-7.6-13.87c-1.65-3.16-3.51-6.15-5.57-8.95-2.06-2.81-4.45-5.27-7.16-7.37-2.71-2.11-5.92-3.77-9.63-5-3.71-1.23-8.04-1.84-12.99-1.84-5.54,0-10.34.85-14.4,2.55-4.06,1.7-7.39,3.86-9.98,6.5-2.59,2.63-4.51,5.59-5.74,8.87-1.24,3.28-1.86,6.56-1.86,9.83,0,3.63.94,7.37,2.83,11.24l12.19,24.93c.59,1.29,1.09,2.43,1.5,3.42.41,1,.62,1.9.62,2.72,0,4.1-4.59,6.15-13.78,6.15h-47c-5.54,0-10.16-.64-13.87-1.93-3.71-1.29-6.66-3.01-8.84-5.18-2.18-2.16-3.71-4.74-4.59-7.73-.88-2.98-1.33-6.17-1.33-9.57v-13.87c0-3.39-1.24-6.32-3.71-8.78-2.47-2.46-5.42-3.69-8.84-3.69s-6.54,1.23-9.01,3.69c-2.47,2.46-3.71,5.39-3.71,8.78v13.87c0,5.39.91,10.95,2.74,16.68,1.82,5.74,4.86,10.97,9.1,15.71,4.24,4.74,9.78,8.66,16.61,11.76,6.83,3.1,15.2,4.65,25.09,4.65h50.54c4.71,0,9.28-.56,13.69-1.67,4.42-1.11,8.33-2.72,11.75-4.83,3.42-2.11,6.18-4.71,8.31-7.81,2.12-3.1,3.18-6.7,3.18-10.8,0-2.69-.44-5.47-1.33-8.34-.88-2.87-2.09-5.71-3.62-8.51l-6.72-12.82c-.59-1.05-1.21-2.25-1.85-3.6-.65-1.34-1.3-2.69-1.94-4.04-.65-1.34-1.18-2.63-1.59-3.86-.41-1.23-.62-2.31-.62-3.25,0-1.64.71-3.16,2.12-4.56,1.41-1.4,3.36-2.11,5.83-2.11,2.94,0,5.57,1.17,7.86,3.51,2.3,2.34,4.74,6.03,7.33,11.06l6.54,11.59c4.12,7.84,8.8,13.9,14.05,18.17,5.24,4.27,11.75,6.41,19.52,6.41h6.71c9.66,0,17.7-1.29,24.12-3.86,2.44-.98,4.64-2.21,6.58-3.68,4.56-3.46,10.71-3.33,15.04.4,1.23,1.06,2.53,2,3.91,2.84,4.71,2.87,10.36,4.3,16.96,4.3,7.3,0,13.25-1.43,17.85-4.3,1.35-.84,2.63-1.79,3.85-2.85,4.4-3.83,10.86-3.51,15.47.08,1.32,1.02,2.74,1.95,4.27,2.77,5.36,2.87,10.92,4.3,16.7,4.3,13.19,0,23.29-3.66,30.3-10.97,7.01-7.31,10.51-17.47,10.51-30.46v-21.24c0-3.39-1.24-6.32-3.71-8.78s-5.42-3.69-8.84-3.69Z"/>
    <path class="st3" d="M403.47,574.58c-3.53,0-6.54,1.23-9.01,3.69s-3.71,5.39-3.71,8.78v107.54c0,6.93,5.66,12.55,12.63,12.55h0c6.98,0,12.63-5.62,12.63-12.55v-107.54c0-3.39-1.24-6.32-3.71-8.78-2.47-2.46-5.42-3.69-8.84-3.69Z"/>
    <path class="st3" d="M471.68,631.99c-3.53,0-6.54,1.23-9.01,3.69-2.47,2.46-3.71,5.39-3.71,8.78v63.73c0,2.57-.47,4.97-1.41,7.2-.94,2.22-2.27,4.18-3.98,5.88-1.71,1.69-3.68,3.01-5.92,3.95-2.24.94-4.59,1.4-7.07,1.4h-9.19c-3.42,0-6.36,1.11-8.84,3.34-2.47,2.22-3.71,5.09-3.71,8.6s1.24,6.32,3.71,8.78c2.47,2.46,5.42,3.69,8.84,3.69h9.37c6.01,0,11.63-1.11,16.87-3.34,5.24-2.22,9.84-5.27,13.78-9.13,3.95-3.86,7.07-8.4,9.37-13.61,2.3-5.21,3.45-10.8,3.45-16.77v-63.73c0-3.39-1.24-6.32-3.71-8.78s-5.42-3.69-8.84-3.69Z"/>
    <path class="st3" d="M578.94,649.38c-2.71-5.85-6.45-10.82-11.22-14.92-4.77-4.1-10.37-7.26-16.79-9.48-6.42-2.22-13.28-3.34-20.59-3.34-3.42,0-6.3,1.17-8.66,3.51-2.36,2.34-3.53,5.21-3.53,8.6s1.18,6.26,3.53,8.6c2.36,2.34,5.24,3.51,8.66,3.51,3.89,0,7.51.47,10.87,1.4,3.36.94,6.24,2.34,8.66,4.21,2.41,1.87,4.33,4.27,5.74,7.2,1.41,2.93,2.12,6.38,2.12,10.36h0c0,7.56-6.17,13.7-13.78,13.7h-29.86c-3.42,0-6.3,1.2-8.66,3.6-2.36,2.4-3.53,5.3-3.53,8.69s1.18,6.26,3.53,8.6c2.35,2.34,5.24,3.51,8.66,3.51h30.57c21.18,0,38.34-17.06,38.34-38.1h0c0-7.26-1.36-13.81-4.06-19.67Z"/>
  </g>
  <g>
    <rect class="st2" x="11.09" y="231.27" width="143.43" height="142.52"/>
    <polygon class="st1" points="297.95 232.8 155.13 232.48 155.13 89.96 299.17 89.96 297.95 232.8"/>
    <polygon class="st0" points="441.86 373.38 298.17 373.38 297.95 232.8 441.86 231.27 441.86 373.38"/>
    <rect class="st4" x="155.13" y="373.18" width="143.43" height="142.52"/>
    <path class="st3" d="M299.17,89.96h56.62c43.93,0,87.3,11.1,125.18,33.22,49.99,29.2,101.4,83.02,101.4,180.87,0,0,4.56,126.47-114.11,185.41-28.62,14.22-60.13,21.77-92.1,23.07l-77.59,3.16v-142.52l143.56.17-.27-142.08-143.9,1.53,1.22-142.84Z"/>
  </g>
</svg>