<svg xmlns="http://www.w3.org/2000/svg" width="24" height="24" viewBox="0 0 24 24" fill="none">
<path d="M17.05 20.28C16.07 21.23 15.06 21.08 14.09 20.68C13.06 20.26 12.12 20.25 11.04 20.68C9.67 21.24 8.93 21.07 8.05 20.28C2.79 14.85 3.51 6.62 9.43 6.32C10.76 6.4 11.7 7.13 12.47 7.19C13.65 6.96 14.78 6.2 16.05 6.3C17.58 6.44 18.73 7.04 19.46 8.1C16.23 10.13 17.02 14.65 20.03 15.84C19.43 17.43 18.66 19 17.04 20.29L17.05 20.28ZM12.4 6.26C12.23 3.97 14.05 2.12 16.21 2C16.5 4.58 13.88 6.5 12.4 6.26Z" fill="black"/>
</svg>
